999
dxflib 3.3.4.0
  0
SECTION
  2
HEADER
  9
$ACADVER
  1
AC1015
  9
$HANDSEED
  5
FFFF
  9
$DIMADEC
 70
0
  9
$DIMASZ
 40
2.5
  9
$DIMAUNIT
 70
0
  9
$DIMAZIN
 70
2
  9
$DIMDEC
 70
4
  9
$DIMEXE
 40
1.25
  9
$DIMEXO
 40
0.625
  9
$DIMGAP
 40
0.625
  9
$DIMLUNIT
 70
2
  9
$DIMSCALE
 40
1.0
  9
$DIMTSZ
 40
0.0
  9
$DIMTXT
 40
2.5
  9
$DIMZIN
 70
8
  9
$DWGCODEPAGE
  3
ANSI_1252
  9
$INSUNITS
 70
4
  9
$LTSCALE
 40
1.0
  0
ENDSEC
  0
SECTION
  2
TABLES
  0
TABLE
  2
VPORT
  5
8
100
AcDbSymbolTable
 70
1
  0
VPORT
  5
30
100
AcDbSymbolTableRecord
100
AcDbViewportTableRecord
  2
*Active
 70
0
 10
0.0
 20
0.0
 11
1.0
 21
1.0
 12
286.3055555555554861
 22
148.5
 13
0.0
 23
0.0
 14
10.0
 24
10.0
 15
10.0
 25
10.0
 16
0.0
 26
0.0
 36
1.0
 17
0.0
 27
0.0
 37
0.0
 40
297.0
 41
1.92798353909465
 42
50.0
 43
0.0
 44
0.0
 50
0.0
 51
0.0
 71
0
 72
100
 73
1
 74
3
 75
1
 76
1
 77
0
 78
0
281
0
 65
1
110
0.0
120
0.0
130
0.0
111
1.0
121
0.0
131
0.0
112
0.0
122
1.0
132
0.0
 79
0
146
0.0
  0
ENDTAB
  0
TABLE
  2
LTYPE
  5
5
100
AcDbSymbolTable
 70
21
  0
LTYPE
  5
16
100
AcDbSymbolTableRecord
100
AcDbLinetypeTableRecord
  2
CONTINUOUS
 70
0
  3
Solid line
 72
65
 73
0
 40
0.0
  0
LTYPE
  5
31
100
AcDbSymbolTableRecord
100
AcDbLinetypeTableRecord
  2
CENTER2
 70
0
  3
Center (.5x) ___ _ ___ _ ___ _ ___ _ ___ _ ___
 72
65
 73
4
 40
28.5749999999999993
 49
19.0500000000000007
 74
0
 49
-3.1749999999999998
 74
0
 49
3.1749999999999998
 74
0
 49
-3.1749999999999998
 74
0
  0
LTYPE
  5
32
100
AcDbSymbolTableRecord
100
AcDbLinetypeTableRecord
  2
DIVIDEX2
 70
0
  3
Divide (2x) ________  .  .  ________  .  .  _
 72
65
 73
6
 40
63.5
 49
25.3999999999999986
 74
0
 49
-12.6999999999999993
 74
0
 49
0.0
 74
0
 49
-12.6999999999999993
 74
0
 49
0.0
 74
0
 49
-12.6999999999999993
 74
0
  0
LTYPE
  5
33
100
AcDbSymbolTableRecord
100
AcDbLinetypeTableRecord
  2
DOT2
 70
0
  3
Dot (.5x) .....................................
 72
65
 73
2
 40
3.1749999999999998
 49
0.0
 74
0
 49
-3.1749999999999998
 74
0
  0
LTYPE
  5
34
100
AcDbSymbolTableRecord
100
AcDbLinetypeTableRecord
  2
DASHDOT2
 70
0
  3
Dash dot (.5x) _._._._._._._._._._._._._._._.
 72
65
 73
4
 40
12.6999999999999993
 49
6.3499999999999996
 74
0
 49
-3.1749999999999998
 74
0
 49
0.0
 74
0
 49
-3.1749999999999998
 74
0
  0
LTYPE
  5
35
100
AcDbSymbolTableRecord
100
AcDbLinetypeTableRecord
  2
DIVIDE
 70
0
  3
Divide ____ . . ____ . . ____ . . ____ . . ____
 72
65
 73
6
 40
31.75
 49
12.6999999999999993
 74
0
 49
-6.3499999999999996
 74
0
 49
0.0
 74
0
 49
-6.3499999999999996
 74
0
 49
0.0
 74
0
 49
-6.3499999999999996
 74
0
  0
LTYPE
  5
36
100
AcDbSymbolTableRecord
100
AcDbLinetypeTableRecord
  2
DASHDOT
 70
0
  3
Dash dot __ . __ . __ . __ . __ . __ . __ . __
 72
65
 73
4
 40
25.3999999999999986
 49
12.6999999999999993
 74
0
 49
-6.3499999999999996
 74
0
 49
0.0
 74
0
 49
-6.3499999999999996
 74
0
  0
LTYPE
  5
37
100
AcDbSymbolTableRecord
100
AcDbLinetypeTableRecord
  2
BORDER
 70
0
  3
Border __ __ . __ __ . __ __ . __ __ . __ __ .
 72
65
 73
6
 40
44.4500000000000028
 49
12.6999999999999993
 74
0
 49
-6.3499999999999996
 74
0
 49
12.6999999999999993
 74
0
 49
-6.3499999999999996
 74
0
 49
0.0
 74
0
 49
-6.3499999999999996
 74
0
  0
LTYPE
  5
38
100
AcDbSymbolTableRecord
100
AcDbLinetypeTableRecord
  2
DASHDOTX2
 70
0
  3
Dash dot (2x) ____  .  ____  .  ____  .  ___
 72
65
 73
4
 40
50.7999999999999972
 49
25.3999999999999986
 74
0
 49
-12.6999999999999993
 74
0
 49
0.0
 74
0
 49
-12.6999999999999993
 74
0
  0
LTYPE
  5
39
100
AcDbSymbolTableRecord
100
AcDbLinetypeTableRecord
  2
CENTERX2
 70
0
  3
Center (2x) ________  __  ________  __  _____
 72
65
 73
4
 40
101.5999999999999943
 49
63.5
 74
0
 49
-12.6999999999999993
 74
0
 49
12.6999999999999993
 74
0
 49
-12.6999999999999993
 74
0
  0
LTYPE
  5
3A
100
AcDbSymbolTableRecord
100
AcDbLinetypeTableRecord
  2
BORDER2
 70
0
  3
Border (.5x) __.__.__.__.__.__.__.__.__.__.__.
 72
65
 73
6
 40
22.2250000000000014
 49
6.3499999999999996
 74
0
 49
-3.1749999999999998
 74
0
 49
6.3499999999999996
 74
0
 49
-3.1749999999999998
 74
0
 49
0.0
 74
0
 49
-3.1749999999999998
 74
0
  0
LTYPE
  5
3B
100
AcDbSymbolTableRecord
100
AcDbLinetypeTableRecord
  2
BORDERX2
 70
0
  3
Border (2x) ____  ____  .  ____  ____  .  ___
 72
65
 73
6
 40
88.9000000000000057
 49
25.3999999999999986
 74
0
 49
-12.6999999999999993
 74
0
 49
25.3999999999999986
 74
0
 49
-12.6999999999999993
 74
0
 49
0.0
 74
0
 49
-12.6999999999999993
 74
0
  0
LTYPE
  5
14
100
AcDbSymbolTableRecord
100
AcDbLinetypeTableRecord
  2
BYBLOCK
 70
0
  3

 72
65
 73
0
 40
0.0
  0
LTYPE
  5
15
100
AcDbSymbolTableRecord
100
AcDbLinetypeTableRecord
  2
BYLAYER
 70
0
  3

 72
65
 73
0
 40
0.0
  0
LTYPE
  5
3C
100
AcDbSymbolTableRecord
100
AcDbLinetypeTableRecord
  2
DASHED2
 70
0
  3
Dashed (.5x) _ _ _ _ _ _ _ _ _ _ _ _ _ _ _ _ _
 72
65
 73
2
 40
9.5250000000000004
 49
6.3499999999999996
 74
0
 49
-3.1749999999999998
 74
0
  0
LTYPE
  5
3D
100
AcDbSymbolTableRecord
100
AcDbLinetypeTableRecord
  2
CENTER
 70
0
  3
Center ____ _ ____ _ ____ _ ____ _ ____ _ ____
 72
65
 73
4
 40
50.7999999999999972
 49
31.75
 74
0
 49
-6.3499999999999996
 74
0
 49
6.3499999999999996
 74
0
 49
-6.3499999999999996
 74
0
  0
LTYPE
  5
3E
100
AcDbSymbolTableRecord
100
AcDbLinetypeTableRecord
  2
DIVIDE2
 70
0
  3
Divide (.5x) __..__..__..__..__..__..__..__.._
 72
65
 73
6
 40
15.875
 49
6.3499999999999996
 74
0
 49
-3.1749999999999998
 74
0
 49
0.0
 74
0
 49
-3.1749999999999998
 74
0
 49
0.0
 74
0
 49
-3.1749999999999998
 74
0
  0
LTYPE
  5
3F
100
AcDbSymbolTableRecord
100
AcDbLinetypeTableRecord
  2
DASHED
 70
0
  3
Dashed __ __ __ __ __ __ __ __ __ __ __ __ __ _
 72
65
 73
2
 40
19.0500000000000007
 49
12.6999999999999993
 74
0
 49
-6.3499999999999996
 74
0
  0
LTYPE
  5
40
100
AcDbSymbolTableRecord
100
AcDbLinetypeTableRecord
  2
DOTX2
 70
0
  3
Dot (2x) .  .  .  .  .  .  .  .  .  .  .  .  .
 72
65
 73
2
 40
12.6999999999999993
 49
0.0
 74
0
 49
-12.6999999999999993
 74
0
  0
LTYPE
  5
41
100
AcDbSymbolTableRecord
100
AcDbLinetypeTableRecord
  2
DASHEDX2
 70
0
  3
Dashed (2x) ____  ____  ____  ____  ____  ___
 72
65
 73
2
 40
38.1000000000000014
 49
25.3999999999999986
 74
0
 49
-12.6999999999999993
 74
0
  0
LTYPE
  5
42
100
AcDbSymbolTableRecord
100
AcDbLinetypeTableRecord
  2
DOT
 70
0
  3
Dot . . . . . . . . . . . . . . . . . . . . . .
 72
65
 73
2
 40
6.3499999999999996
 49
0.0
 74
0
 49
-6.3499999999999996
 74
0
  0
ENDTAB
  0
TABLE
  2
LAYER
  5
2
100
AcDbSymbolTable
 70
1
  0
LAYER
  5
10
100
AcDbSymbolTableRecord
100
AcDbLayerTableRecord
  2
0
 70
0
 62
7
420
0
  6
CONTINUOUS
370
25
390
F
  0
ENDTAB
  0
TABLE
  2
STYLE
  5
3
100
AcDbSymbolTable
 70
4
  0
STYLE
  5
43
100
AcDbSymbolTableRecord
100
AcDbTextStyleTableRecord
  2
Standard
 70
0
 40
0.0
 41
1.0
 50
0.0
 71
0
 42
2.5
  3

  4

1001
ACAD
1000
txt
1071
0
  0
STYLE
  5
44
100
AcDbSymbolTableRecord
100
AcDbTextStyleTableRecord
  2
textstyle0
 70
0
 40
0.0
 41
1.0
 50
0.0
 71
0
 42
4.0
  3

  4

1001
ACAD
1000
Monospace
1071
0
  0
STYLE
  5
45
100
AcDbSymbolTableRecord
100
AcDbTextStyleTableRecord
  2
textstyle1
 70
0
 40
0.0
 41
1.0
 50
0.0
 71
0
 42
4.0
  3

  4

1001
ACAD
1000
Monospace
1071
0
  0
STYLE
  5
46
100
AcDbSymbolTableRecord
100
AcDbTextStyleTableRecord
  2
textstyle2
 70
0
 40
0.0
 41
1.0
 50
0.0
 71
0
 42
4.0
  3

  4

1001
ACAD
1000
Monospace
1071
0
  0
ENDTAB
  0
TABLE
  2
VIEW
  5
6
100
AcDbSymbolTable
 70
0
  0
ENDTAB
  0
TABLE
  2
UCS
  5
7
100
AcDbSymbolTable
 70
0
  0
ENDTAB
  0
TABLE
  2
APPID
  5
9
100
AcDbSymbolTable
 70
1
  0
APPID
  5
12
100
AcDbSymbolTableRecord
100
AcDbRegAppTableRecord
  2
ACAD
 70
0
  0
APPID
  5
47
100
AcDbSymbolTableRecord
100
AcDbRegAppTableRecord
  2
QCAD
 70
0
  0
ENDTAB
  0
TABLE
  2
DIMSTYLE
  5
A
100
AcDbSymbolTable
 70
1
100
AcDbDimStyleTable
 71
0
  0
DIMSTYLE
105
27
100
AcDbSymbolTableRecord
100
AcDbDimStyleTableRecord
  2
Standard
 41
2.5
 42
0.625
 43
3.75
 44
1.25
 70
0
 73
0
 74
0
 77
1
 78
8
140
2.5
141
2.5
143
0.03937007874016
147
0.625
171
3
172
1
271
2
272
2
274
3
278
44
283
0
284
8
340
43
  0
ENDTAB
  0
TABLE
  2
BLOCK_RECORD
  5
1
100
AcDbSymbolTable
 70
1
  0
BLOCK_RECORD
  5
1F
100
AcDbSymbolTableRecord
100
AcDbBlockTableRecord
  2
*Model_Space
340
22
  0
BLOCK_RECORD
  5
1B
100
AcDbSymbolTableRecord
100
AcDbBlockTableRecord
  2
*Paper_Space
340
1E
  0
BLOCK_RECORD
  5
23
100
AcDbSymbolTableRecord
100
AcDbBlockTableRecord
  2
*Paper_Space0
340
26
  0
ENDTAB
  0
ENDSEC
  0
SECTION
  2
BLOCKS
  0
BLOCK
  5
20
100
AcDbEntity
  8
0
100
AcDbBlockBegin
  2
*Model_Space
 70
0
 10
0.0
 20
0.0
 30
0.0
  3
*Model_Space
  1

  0
ENDBLK
  5
21
100
AcDbEntity
  8
0
100
AcDbBlockEnd
  0
BLOCK
  5
1C
100
AcDbEntity
 67
1
  8
0
100
AcDbBlockBegin
  2
*Paper_Space
 70
0
 10
0.0
 20
0.0
 30
0.0
  3
*Paper_Space
  1

  0
ENDBLK
  5
1D
100
AcDbEntity
 67
1
  8
0
100
AcDbBlockEnd
  0
BLOCK
  5
24
100
AcDbEntity
  8
0
100
AcDbBlockBegin
  2
*Paper_Space0
 70
0
 10
0.0
 20
0.0
 30
0.0
  3
*Paper_Space0
  1

  0
ENDBLK
  5
25
100
AcDbEntity
  8
0
100
AcDbBlockEnd
  0
ENDSEC
  0
SECTION
  2
ENTITIES
  0
LINE
  5
48
100
AcDbEntity
100
AcDbLine
  8
0
 62
256
370
-1
  6
BYLAYER
 10
0.0
 20
80.0
 30
0.0
 11
-3.0
 21
80.0
 31
0.0
  0
LINE
  5
49
100
AcDbEntity
100
AcDbLine
  8
0
 62
256
370
-1
  6
BYLAYER
 10
-3.0
 20
80.0
 30
0.0
 11
-3.0
 21
170.0
 31
0.0
  0
LINE
  5
4A
100
AcDbEntity
100
AcDbLine
  8
0
 62
256
370
-1
  6
BYLAYER
 10
-3.0
 20
170.0
 30
0.0
 11
0.0
 21
170.0
 31
0.0
  0
LINE
  5
4B
100
AcDbEntity
100
AcDbLine
  8
0
 62
256
370
-1
  6
BYLAYER
 10
0.0
 20
250.0
 30
0.0
 11
0.0
 21
170.0
 31
0.0
  0
LINE
  5
4C
100
AcDbEntity
100
AcDbLine
  8
0
 62
256
370
-1
  6
BYLAYER
 10
300.0
 20
80.0000000000000142
 30
0.0
 11
303.0
 21
79.9999999999999289
 31
0.0
  0
LINE
  5
4D
100
AcDbEntity
100
AcDbLine
  8
0
 62
256
370
-1
  6
BYLAYER
 10
303.0
 20
79.9999999999999289
 30
0.0
 11
303.0000000000000568
 21
169.9999999999999716
 31
0.0
  0
LINE
  5
4E
100
AcDbEntity
100
AcDbLine
  8
0
 62
256
370
-1
  6
BYLAYER
 10
303.0000000000000568
 20
169.9999999999999716
 30
0.0
 11
300.0
 21
170.0000000000000284
 31
0.0
  0
LINE
  5
4F
100
AcDbEntity
100
AcDbLine
  8
0
 62
256
370
-1
  6
BYLAYER
 10
300.0000000000001137
 20
249.9999999999999147
 30
0.0
 11
300.0
 21
170.0000000000000284
 31
0.0
  0
LINE
  5
50
100
AcDbEntity
100
AcDbLine
  8
0
 62
256
370
-1
  6
BYLAYER
 10
100.0000000000000711
 20
249.9999999999999432
 30
0.0
 11
100.0000000000000568
 21
252.9999999999999716
 31
0.0
  0
LINE
  5
51
100
AcDbEntity
100
AcDbLine
  8
0
 62
256
370
-1
  6
BYLAYER
 10
100.0000000000000568
 20
252.9999999999999716
 30
0.0
 11
200.0000000000000568
 21
252.9999999999999432
 31
0.0
  0
LINE
  5
52
100
AcDbEntity
100
AcDbLine
  8
0
 62
256
370
-1
  6
BYLAYER
 10
200.0000000000000568
 20
252.9999999999999432
 30
0.0
 11
199.9999999999999716
 21
250.0000000000000568
 31
0.0
  0
LINE
  5
53
100
AcDbEntity
100
AcDbLine
  8
0
 62
256
370
-1
  6
BYLAYER
 10
-0.0000000000000062
 20
250.0
 30
0.0
 11
100.0000000000000711
 21
249.9999999999999432
 31
0.0
  0
LINE
  5
54
100
AcDbEntity
100
AcDbLine
  8
0
 62
256
370
-1
  6
BYLAYER
 10
199.9999999999999716
 20
250.0000000000000568
 30
0.0
 11
299.9999999999999432
 21
250.0000000000000568
 31
0.0
  0
LINE
  5
55
100
AcDbEntity
100
AcDbLine
  8
0
 62
256
370
-1
  6
BYLAYER
 10
0.0
 20
80.0
 30
0.0
 11
0.0
 21
40.0
 31
0.0
  0
LINE
  5
56
100
AcDbEntity
100
AcDbLine
  8
0
 62
256
370
-1
  6
BYLAYER
 10
300.0
 20
80.0000000000000142
 30
0.0
 11
300.0
 21
40.0000000000000071
 31
0.0
  0
LINE
  5
57
100
AcDbEntity
100
AcDbLine
  8
0
 62
256
370
-1
  6
BYLAYER
 10
199.9999999999999432
 20
-22.8000000000000114
 30
0.0
 11
199.9999999999999432
 21
-25.8000000000000966
 31
0.0
  0
LINE
  5
58
100
AcDbEntity
100
AcDbLine
  8
0
 62
256
370
-1
  6
BYLAYER
 10
199.9999999999999432
 20
-25.8000000000000966
 30
0.0
 11
99.9999999999999432
 21
-25.7999999999998977
 31
0.0
  0
LINE
  5
59
100
AcDbEntity
100
AcDbLine
  8
0
 62
256
370
-1
  6
BYLAYER
 10
99.9999999999999432
 20
-25.7999999999998977
 30
0.0
 11
100.0000000000000284
 21
-22.8000000000000114
 31
0.0
  0
LINE
  5
5A
100
AcDbEntity
100
AcDbLine
  8
0
 62
256
370
-1
  6
BYLAYER
 10
-3.0
 20
-22.7999999999999972
 30
0.0
 11
-3.0
 21
40.0
 31
0.0
  0
LINE
  5
5B
100
AcDbEntity
100
AcDbLine
  8
0
 62
256
370
-1
  6
BYLAYER
 10
-3.0
 20
40.0
 30
0.0
 11
0.0
 21
40.0
 31
0.0
  0
LINE
  5
5C
100
AcDbEntity
100
AcDbLine
  8
0
 62
256
370
-1
  6
BYLAYER
 10
-3.0
 20
-22.7999999999999972
 30
0.0
 11
100.0000000000000284
 21
-22.8000000000000114
 31
0.0
  0
LINE
  5
5D
100
AcDbEntity
100
AcDbLine
  8
0
 62
256
370
-1
  6
BYLAYER
 10
302.9999999999998863
 20
-22.8000000000006189
 30
0.0
 11
303.0
 21
39.99999999999973
 31
0.0
  0
LINE
  5
5E
100
AcDbEntity
100
AcDbLine
  8
0
 62
256
370
-1
  6
BYLAYER
 10
303.0
 20
39.99999999999973
 30
0.0
 11
300.0
 21
39.9999999999996874
 31
0.0
  0
LINE
  5
5F
100
AcDbEntity
100
AcDbLine
  8
0
 62
256
370
-1
  6
BYLAYER
 10
199.9999999999999432
 20
-22.8000000000000114
 30
0.0
 11
302.9999999999998863
 21
-22.8000000000006189
 31
0.0
  0
LINE
  5
60
100
AcDbEntity
100
AcDbLine
  8
0
 62
256
370
-1
  6
BYLAYER
 10
157.4999999999999432
 20
-20.7999999999999972
 30
0.0
 11
202.4999999999999432
 21
-20.7999999999999972
 31
0.0
  0
LINE
  5
61
100
AcDbEntity
100
AcDbLine
  8
0
 62
256
370
-1
  6
BYLAYER
 10
217.4999999999999432
 20
-20.7999999999999972
 30
0.0
 11
262.4999999999999432
 21
-20.7999999999999972
 31
0.0
  0
LINE
  5
62
100
AcDbEntity
100
AcDbLine
  8
0
 62
256
370
-1
  6
BYLAYER
 10
277.4999999999999432
 20
-20.7999999999999972
 30
0.0
 11
302.9999999999999432
 21
-20.7999999999999972
 31
0.0
  0
LINE
  5
63
100
AcDbEntity
100
AcDbLine
  8
0
 62
256
370
-1
  6
BYLAYER
 10
142.4999999999999432
 20
-20.7999999999999829
 30
0.0
 11
97.4999999999999432
 21
-20.7999999999998764
 31
0.0
  0
LINE
  5
64
100
AcDbEntity
100
AcDbLine
  8
0
 62
256
370
-1
  6
BYLAYER
 10
82.4999999999999432
 20
-20.799999999999855
 30
0.0
 11
37.4999999999999574
 21
-20.7999999999998835
 31
0.0
  0
LINE
  5
65
100
AcDbEntity
100
AcDbLine
  8
0
 62
256
370
-1
  6
BYLAYER
 10
22.4999999999999574
 20
-20.7999999999998089
 30
0.0
 11
-3.0000000000000284
 21
-20.7999999999990628
 31
0.0
  0
LINE
  5
66
100
AcDbEntity
100
AcDbLine
  8
0
 62
256
370
-1
  6
BYLAYER
 10
149.9999999999999432
 20
-18.7999999999999972
 30
0.0
 11
172.4999999999999432
 21
-18.7999999999999972
 31
0.0
  0
LINE
  5
67
100
AcDbEntity
100
AcDbLine
  8
0
 62
256
370
-1
  6
BYLAYER
 10
187.4999999999999432
 20
-18.7999999999999972
 30
0.0
 11
232.4999999999999432
 21
-18.7999999999999972
 31
0.0
  0
LINE
  5
68
100
AcDbEntity
100
AcDbLine
  8
0
 62
256
370
-1
  6
BYLAYER
 10
247.4999999999999432
 20
-18.7999999999999972
 30
0.0
 11
292.4999999999999432
 21
-18.7999999999999972
 31
0.0
  0
LINE
  5
69
100
AcDbEntity
100
AcDbLine
  8
0
 62
256
370
-1
  6
BYLAYER
 10
149.9999999999999716
 20
-18.7999999999999972
 30
0.0
 11
127.4999999999999574
 21
-18.7999999999999545
 31
0.0
  0
LINE
  5
6A
100
AcDbEntity
100
AcDbLine
  8
0
 62
256
370
-1
  6
BYLAYER
 10
112.4999999999999716
 20
-18.7999999999999154
 30
0.0
 11
67.4999999999999574
 21
-18.7999999999999581
 31
0.0
  0
LINE
  5
6B
100
AcDbEntity
100
AcDbLine
  8
0
 62
256
370
-1
  6
BYLAYER
 10
52.4999999999999716
 20
-18.7999999999997449
 30
0.0
 11
7.4999999999999716
 21
-18.7999999999996881
 31
0.0
  0
LINE
  5
6C
100
AcDbEntity
100
AcDbLine
  8
0
 62
256
370
-1
  6
BYLAYER
 10
157.4999999999999432
 20
-16.7999999999999972
 30
0.0
 11
202.4999999999999432
 21
-16.7999999999999972
 31
0.0
  0
LINE
  5
6D
100
AcDbEntity
100
AcDbLine
  8
0
 62
256
370
-1
  6
BYLAYER
 10
217.4999999999999432
 20
-16.7999999999999972
 30
0.0
 11
262.4999999999999432
 21
-16.7999999999999972
 31
0.0
  0
LINE
  5
6E
100
AcDbEntity
100
AcDbLine
  8
0
 62
256
370
-1
  6
BYLAYER
 10
277.4999999999999432
 20
-16.7999999999999972
 30
0.0
 11
302.9999999999999432
 21
-16.7999999999999972
 31
0.0
  0
LINE
  5
6F
100
AcDbEntity
100
AcDbLine
  8
0
 62
256
370
-1
  6
BYLAYER
 10
142.4999999999999432
 20
-16.7999999999999829
 30
0.0
 11
97.4999999999999432
 21
-16.7999999999998764
 31
0.0
  0
LINE
  5
70
100
AcDbEntity
100
AcDbLine
  8
0
 62
256
370
-1
  6
BYLAYER
 10
82.4999999999999432
 20
-16.799999999999855
 30
0.0
 11
37.4999999999999574
 21
-16.7999999999998835
 31
0.0
  0
LINE
  5
71
100
AcDbEntity
100
AcDbLine
  8
0
 62
256
370
-1
  6
BYLAYER
 10
22.4999999999999574
 20
-16.7999999999998089
 30
0.0
 11
-3.0000000000000284
 21
-16.7999999999990628
 31
0.0
  0
LINE
  5
72
100
AcDbEntity
100
AcDbLine
  8
0
 62
256
370
-1
  6
BYLAYER
 10
149.9999999999999432
 20
-14.7999999999999972
 30
0.0
 11
172.4999999999999432
 21
-14.7999999999999972
 31
0.0
  0
LINE
  5
73
100
AcDbEntity
100
AcDbLine
  8
0
 62
256
370
-1
  6
BYLAYER
 10
187.4999999999999432
 20
-14.7999999999999972
 30
0.0
 11
232.4999999999999432
 21
-14.7999999999999972
 31
0.0
  0
LINE
  5
74
100
AcDbEntity
100
AcDbLine
  8
0
 62
256
370
-1
  6
BYLAYER
 10
247.4999999999999432
 20
-14.7999999999999972
 30
0.0
 11
292.4999999999999432
 21
-14.7999999999999972
 31
0.0
  0
LINE
  5
75
100
AcDbEntity
100
AcDbLine
  8
0
 62
256
370
-1
  6
BYLAYER
 10
149.9999999999999716
 20
-14.7999999999999972
 30
0.0
 11
127.4999999999999574
 21
-14.7999999999999545
 31
0.0
  0
LINE
  5
76
100
AcDbEntity
100
AcDbLine
  8
0
 62
256
370
-1
  6
BYLAYER
 10
112.4999999999999716
 20
-14.7999999999999154
 30
0.0
 11
67.4999999999999574
 21
-14.7999999999999581
 31
0.0
  0
LINE
  5
77
100
AcDbEntity
100
AcDbLine
  8
0
 62
256
370
-1
  6
BYLAYER
 10
52.4999999999999716
 20
-14.7999999999997449
 30
0.0
 11
7.4999999999999716
 21
-14.7999999999996881
 31
0.0
  0
LINE
  5
78
100
AcDbEntity
100
AcDbLine
  8
0
 62
256
370
-1
  6
BYLAYER
 10
157.4999999999999432
 20
-12.7999999999999972
 30
0.0
 11
202.4999999999999432
 21
-12.7999999999999972
 31
0.0
  0
LINE
  5
79
100
AcDbEntity
100
AcDbLine
  8
0
 62
256
370
-1
  6
BYLAYER
 10
217.4999999999999432
 20
-12.7999999999999972
 30
0.0
 11
262.4999999999999432
 21
-12.7999999999999972
 31
0.0
  0
LINE
  5
7A
100
AcDbEntity
100
AcDbLine
  8
0
 62
256
370
-1
  6
BYLAYER
 10
277.4999999999999432
 20
-12.7999999999999972
 30
0.0
 11
302.9999999999999432
 21
-12.7999999999999972
 31
0.0
  0
LINE
  5
7B
100
AcDbEntity
100
AcDbLine
  8
0
 62
256
370
-1
  6
BYLAYER
 10
142.4999999999999432
 20
-12.7999999999999829
 30
0.0
 11
97.4999999999999432
 21
-12.7999999999998764
 31
0.0
  0
LINE
  5
7C
100
AcDbEntity
100
AcDbLine
  8
0
 62
256
370
-1
  6
BYLAYER
 10
82.4999999999999432
 20
-12.799999999999855
 30
0.0
 11
37.4999999999999574
 21
-12.7999999999998835
 31
0.0
  0
LINE
  5
7D
100
AcDbEntity
100
AcDbLine
  8
0
 62
256
370
-1
  6
BYLAYER
 10
22.4999999999999574
 20
-12.7999999999998089
 30
0.0
 11
-3.0000000000000284
 21
-12.7999999999990628
 31
0.0
  0
LINE
  5
7E
100
AcDbEntity
100
AcDbLine
  8
0
 62
256
370
-1
  6
BYLAYER
 10
149.9999999999999432
 20
-10.7999999999999972
 30
0.0
 11
172.4999999999999432
 21
-10.7999999999999972
 31
0.0
  0
LINE
  5
7F
100
AcDbEntity
100
AcDbLine
  8
0
 62
256
370
-1
  6
BYLAYER
 10
187.4999999999999432
 20
-10.7999999999999972
 30
0.0
 11
232.4999999999999432
 21
-10.7999999999999972
 31
0.0
  0
LINE
  5
80
100
AcDbEntity
100
AcDbLine
  8
0
 62
256
370
-1
  6
BYLAYER
 10
247.4999999999999432
 20
-10.7999999999999972
 30
0.0
 11
292.4999999999999432
 21
-10.7999999999999972
 31
0.0
  0
LINE
  5
81
100
AcDbEntity
100
AcDbLine
  8
0
 62
256
370
-1
  6
BYLAYER
 10
149.9999999999999716
 20
-10.7999999999999972
 30
0.0
 11
127.4999999999999574
 21
-10.7999999999999545
 31
0.0
  0
LINE
  5
82
100
AcDbEntity
100
AcDbLine
  8
0
 62
256
370
-1
  6
BYLAYER
 10
112.4999999999999716
 20
-10.7999999999999154
 30
0.0
 11
67.4999999999999574
 21
-10.7999999999999581
 31
0.0
  0
LINE
  5
83
100
AcDbEntity
100
AcDbLine
  8
0
 62
256
370
-1
  6
BYLAYER
 10
52.4999999999999716
 20
-10.7999999999997449
 30
0.0
 11
7.4999999999999716
 21
-10.7999999999996881
 31
0.0
  0
LINE
  5
84
100
AcDbEntity
100
AcDbLine
  8
0
 62
256
370
-1
  6
BYLAYER
 10
157.4999999999999432
 20
-8.7999999999999972
 30
0.0
 11
202.4999999999999432
 21
-8.7999999999999972
 31
0.0
  0
LINE
  5
85
100
AcDbEntity
100
AcDbLine
  8
0
 62
256
370
-1
  6
BYLAYER
 10
217.4999999999999432
 20
-8.7999999999999972
 30
0.0
 11
262.4999999999999432
 21
-8.7999999999999972
 31
0.0
  0
LINE
  5
86
100
AcDbEntity
100
AcDbLine
  8
0
 62
256
370
-1
  6
BYLAYER
 10
277.4999999999999432
 20
-8.7999999999999972
 30
0.0
 11
302.9999999999999432
 21
-8.7999999999999972
 31
0.0
  0
LINE
  5
87
100
AcDbEntity
100
AcDbLine
  8
0
 62
256
370
-1
  6
BYLAYER
 10
142.4999999999999432
 20
-8.7999999999999829
 30
0.0
 11
97.4999999999999432
 21
-8.7999999999998764
 31
0.0
  0
LINE
  5
88
100
AcDbEntity
100
AcDbLine
  8
0
 62
256
370
-1
  6
BYLAYER
 10
82.4999999999999432
 20
-8.799999999999855
 30
0.0
 11
37.4999999999999574
 21
-8.7999999999998835
 31
0.0
  0
LINE
  5
89
100
AcDbEntity
100
AcDbLine
  8
0
 62
256
370
-1
  6
BYLAYER
 10
22.4999999999999574
 20
-8.7999999999998089
 30
0.0
 11
-3.0000000000000284
 21
-8.7999999999990628
 31
0.0
  0
LINE
  5
8A
100
AcDbEntity
100
AcDbLine
  8
0
 62
256
370
-1
  6
BYLAYER
 10
149.9999999999999432
 20
-6.7999999999999972
 30
0.0
 11
172.4999999999999432
 21
-6.7999999999999972
 31
0.0
  0
LINE
  5
8B
100
AcDbEntity
100
AcDbLine
  8
0
 62
256
370
-1
  6
BYLAYER
 10
187.4999999999999432
 20
-6.7999999999999972
 30
0.0
 11
232.4999999999999432
 21
-6.7999999999999972
 31
0.0
  0
LINE
  5
8C
100
AcDbEntity
100
AcDbLine
  8
0
 62
256
370
-1
  6
BYLAYER
 10
247.4999999999999432
 20
-6.7999999999999972
 30
0.0
 11
292.4999999999999432
 21
-6.7999999999999972
 31
0.0
  0
LINE
  5
8D
100
AcDbEntity
100
AcDbLine
  8
0
 62
256
370
-1
  6
BYLAYER
 10
149.9999999999999716
 20
-6.7999999999999972
 30
0.0
 11
127.4999999999999574
 21
-6.7999999999999545
 31
0.0
  0
LINE
  5
8E
100
AcDbEntity
100
AcDbLine
  8
0
 62
256
370
-1
  6
BYLAYER
 10
112.4999999999999716
 20
-6.7999999999999154
 30
0.0
 11
67.4999999999999574
 21
-6.7999999999999581
 31
0.0
  0
LINE
  5
8F
100
AcDbEntity
100
AcDbLine
  8
0
 62
256
370
-1
  6
BYLAYER
 10
52.4999999999999716
 20
-6.7999999999997449
 30
0.0
 11
7.4999999999999716
 21
-6.7999999999996881
 31
0.0
  0
LINE
  5
90
100
AcDbEntity
100
AcDbLine
  8
0
 62
256
370
-1
  6
BYLAYER
 10
157.4999999999999432
 20
-4.7999999999999972
 30
0.0
 11
202.4999999999999432
 21
-4.7999999999999972
 31
0.0
  0
LINE
  5
91
100
AcDbEntity
100
AcDbLine
  8
0
 62
256
370
-1
  6
BYLAYER
 10
217.4999999999999432
 20
-4.7999999999999972
 30
0.0
 11
262.4999999999999432
 21
-4.7999999999999972
 31
0.0
  0
LINE
  5
92
100
AcDbEntity
100
AcDbLine
  8
0
 62
256
370
-1
  6
BYLAYER
 10
277.4999999999999432
 20
-4.7999999999999972
 30
0.0
 11
302.9999999999999432
 21
-4.7999999999999972
 31
0.0
  0
LINE
  5
93
100
AcDbEntity
100
AcDbLine
  8
0
 62
256
370
-1
  6
BYLAYER
 10
142.4999999999999432
 20
-4.7999999999999829
 30
0.0
 11
97.4999999999999432
 21
-4.7999999999998764
 31
0.0
  0
LINE
  5
94
100
AcDbEntity
100
AcDbLine
  8
0
 62
256
370
-1
  6
BYLAYER
 10
82.4999999999999432
 20
-4.799999999999855
 30
0.0
 11
37.4999999999999574
 21
-4.7999999999998835
 31
0.0
  0
LINE
  5
95
100
AcDbEntity
100
AcDbLine
  8
0
 62
256
370
-1
  6
BYLAYER
 10
22.4999999999999574
 20
-4.7999999999998089
 30
0.0
 11
-3.0000000000000284
 21
-4.7999999999990628
 31
0.0
  0
LINE
  5
96
100
AcDbEntity
100
AcDbLine
  8
0
 62
256
370
-1
  6
BYLAYER
 10
149.9999999999999432
 20
-2.7999999999999972
 30
0.0
 11
172.4999999999999432
 21
-2.7999999999999972
 31
0.0
  0
LINE
  5
97
100
AcDbEntity
100
AcDbLine
  8
0
 62
256
370
-1
  6
BYLAYER
 10
187.4999999999999432
 20
-2.7999999999999972
 30
0.0
 11
232.4999999999999432
 21
-2.7999999999999972
 31
0.0
  0
LINE
  5
98
100
AcDbEntity
100
AcDbLine
  8
0
 62
256
370
-1
  6
BYLAYER
 10
247.4999999999999432
 20
-2.7999999999999972
 30
0.0
 11
292.4999999999999432
 21
-2.7999999999999972
 31
0.0
  0
LINE
  5
99
100
AcDbEntity
100
AcDbLine
  8
0
 62
256
370
-1
  6
BYLAYER
 10
149.9999999999999716
 20
-2.7999999999999972
 30
0.0
 11
127.4999999999999574
 21
-2.7999999999999545
 31
0.0
  0
LINE
  5
9A
100
AcDbEntity
100
AcDbLine
  8
0
 62
256
370
-1
  6
BYLAYER
 10
112.4999999999999716
 20
-2.7999999999999154
 30
0.0
 11
67.4999999999999574
 21
-2.7999999999999581
 31
0.0
  0
LINE
  5
9B
100
AcDbEntity
100
AcDbLine
  8
0
 62
256
370
-1
  6
BYLAYER
 10
52.4999999999999716
 20
-2.7999999999997449
 30
0.0
 11
7.4999999999999716
 21
-2.7999999999996881
 31
0.0
  0
LINE
  5
9C
100
AcDbEntity
100
AcDbLine
  8
0
 62
256
370
-1
  6
BYLAYER
 10
157.4999999999999432
 20
-0.7999999999999972
 30
0.0
 11
202.4999999999999432
 21
-0.7999999999999972
 31
0.0
  0
LINE
  5
9D
100
AcDbEntity
100
AcDbLine
  8
0
 62
256
370
-1
  6
BYLAYER
 10
217.4999999999999432
 20
-0.7999999999999972
 30
0.0
 11
262.4999999999999432
 21
-0.7999999999999972
 31
0.0
  0
LINE
  5
9E
100
AcDbEntity
100
AcDbLine
  8
0
 62
256
370
-1
  6
BYLAYER
 10
277.4999999999999432
 20
-0.7999999999999972
 30
0.0
 11
302.9999999999999432
 21
-0.7999999999999972
 31
0.0
  0
LINE
  5
9F
100
AcDbEntity
100
AcDbLine
  8
0
 62
256
370
-1
  6
BYLAYER
 10
142.4999999999999432
 20
-0.7999999999999829
 30
0.0
 11
97.4999999999999432
 21
-0.7999999999998764
 31
0.0
  0
LINE
  5
A0
100
AcDbEntity
100
AcDbLine
  8
0
 62
256
370
-1
  6
BYLAYER
 10
82.4999999999999432
 20
-0.799999999999855
 30
0.0
 11
37.4999999999999574
 21
-0.7999999999998835
 31
0.0
  0
LINE
  5
A1
100
AcDbEntity
100
AcDbLine
  8
0
 62
256
370
-1
  6
BYLAYER
 10
22.4999999999999574
 20
-0.7999999999998089
 30
0.0
 11
-3.0000000000000284
 21
-0.7999999999990628
 31
0.0
  0
LINE
  5
A2
100
AcDbEntity
100
AcDbLine
  8
0
 62
256
370
-1
  6
BYLAYER
 10
149.9999999999999432
 20
1.2000000000000028
 30
0.0
 11
172.4999999999999432
 21
1.2000000000000028
 31
0.0
  0
LINE
  5
A3
100
AcDbEntity
100
AcDbLine
  8
0
 62
256
370
-1
  6
BYLAYER
 10
187.4999999999999432
 20
1.2000000000000028
 30
0.0
 11
232.4999999999999432
 21
1.2000000000000028
 31
0.0
  0
LINE
  5
A4
100
AcDbEntity
100
AcDbLine
  8
0
 62
256
370
-1
  6
BYLAYER
 10
247.4999999999999432
 20
1.2000000000000028
 30
0.0
 11
292.4999999999999432
 21
1.2000000000000028
 31
0.0
  0
LINE
  5
A5
100
AcDbEntity
100
AcDbLine
  8
0
 62
256
370
-1
  6
BYLAYER
 10
149.9999999999999716
 20
1.2000000000000028
 30
0.0
 11
127.4999999999999574
 21
1.2000000000000455
 31
0.0
  0
LINE
  5
A6
100
AcDbEntity
100
AcDbLine
  8
0
 62
256
370
-1
  6
BYLAYER
 10
112.4999999999999716
 20
1.2000000000000846
 30
0.0
 11
67.4999999999999574
 21
1.2000000000000419
 31
0.0
  0
LINE
  5
A7
100
AcDbEntity
100
AcDbLine
  8
0
 62
256
370
-1
  6
BYLAYER
 10
52.4999999999999716
 20
1.2000000000002551
 30
0.0
 11
7.4999999999999716
 21
1.2000000000003119
 31
0.0
  0
LINE
  5
A8
100
AcDbEntity
100
AcDbLine
  8
0
 62
256
370
-1
  6
BYLAYER
 10
157.4999999999999432
 20
3.2000000000000028
 30
0.0
 11
202.4999999999999432
 21
3.2000000000000028
 31
0.0
  0
LINE
  5
A9
100
AcDbEntity
100
AcDbLine
  8
0
 62
256
370
-1
  6
BYLAYER
 10
217.4999999999999432
 20
3.2000000000000028
 30
0.0
 11
262.4999999999999432
 21
3.2000000000000028
 31
0.0
  0
LINE
  5
AA
100
AcDbEntity
100
AcDbLine
  8
0
 62
256
370
-1
  6
BYLAYER
 10
277.4999999999999432
 20
3.2000000000000028
 30
0.0
 11
302.9999999999999432
 21
3.2000000000000028
 31
0.0
  0
LINE
  5
AB
100
AcDbEntity
100
AcDbLine
  8
0
 62
256
370
-1
  6
BYLAYER
 10
142.4999999999999432
 20
3.2000000000000171
 30
0.0
 11
97.4999999999999432
 21
3.2000000000001236
 31
0.0
  0
LINE
  5
AC
100
AcDbEntity
100
AcDbLine
  8
0
 62
256
370
-1
  6
BYLAYER
 10
82.4999999999999432
 20
3.200000000000145
 30
0.0
 11
37.4999999999999574
 21
3.2000000000001165
 31
0.0
  0
LINE
  5
AD
100
AcDbEntity
100
AcDbLine
  8
0
 62
256
370
-1
  6
BYLAYER
 10
22.4999999999999574
 20
3.2000000000001911
 30
0.0
 11
-3.0000000000000284
 21
3.2000000000009372
 31
0.0
  0
LINE
  5
AE
100
AcDbEntity
100
AcDbLine
  8
0
 62
256
370
-1
  6
BYLAYER
 10
149.9999999999999432
 20
5.2000000000000028
 30
0.0
 11
172.4999999999999432
 21
5.2000000000000028
 31
0.0
  0
LINE
  5
AF
100
AcDbEntity
100
AcDbLine
  8
0
 62
256
370
-1
  6
BYLAYER
 10
187.4999999999999432
 20
5.2000000000000028
 30
0.0
 11
232.4999999999999432
 21
5.2000000000000028
 31
0.0
  0
LINE
  5
B0
100
AcDbEntity
100
AcDbLine
  8
0
 62
256
370
-1
  6
BYLAYER
 10
247.4999999999999432
 20
5.2000000000000028
 30
0.0
 11
292.4999999999999432
 21
5.2000000000000028
 31
0.0
  0
LINE
  5
B1
100
AcDbEntity
100
AcDbLine
  8
0
 62
256
370
-1
  6
BYLAYER
 10
149.9999999999999716
 20
5.2000000000000028
 30
0.0
 11
127.4999999999999574
 21
5.2000000000000455
 31
0.0
  0
LINE
  5
B2
100
AcDbEntity
100
AcDbLine
  8
0
 62
256
370
-1
  6
BYLAYER
 10
112.4999999999999716
 20
5.2000000000000846
 30
0.0
 11
67.4999999999999574
 21
5.2000000000000419
 31
0.0
  0
LINE
  5
B3
100
AcDbEntity
100
AcDbLine
  8
0
 62
256
370
-1
  6
BYLAYER
 10
52.4999999999999716
 20
5.2000000000002551
 30
0.0
 11
7.4999999999999716
 21
5.2000000000003119
 31
0.0
  0
LINE
  5
B4
100
AcDbEntity
100
AcDbLine
  8
0
 62
256
370
-1
  6
BYLAYER
 10
157.4999999999999432
 20
7.2000000000000028
 30
0.0
 11
202.4999999999999432
 21
7.2000000000000028
 31
0.0
  0
LINE
  5
B5
100
AcDbEntity
100
AcDbLine
  8
0
 62
256
370
-1
  6
BYLAYER
 10
217.4999999999999432
 20
7.2000000000000028
 30
0.0
 11
262.4999999999999432
 21
7.2000000000000028
 31
0.0
  0
LINE
  5
B6
100
AcDbEntity
100
AcDbLine
  8
0
 62
256
370
-1
  6
BYLAYER
 10
277.4999999999999432
 20
7.2000000000000028
 30
0.0
 11
302.9999999999999432
 21
7.2000000000000028
 31
0.0
  0
LINE
  5
B7
100
AcDbEntity
100
AcDbLine
  8
0
 62
256
370
-1
  6
BYLAYER
 10
142.4999999999999432
 20
7.2000000000000171
 30
0.0
 11
97.4999999999999432
 21
7.2000000000001236
 31
0.0
  0
LINE
  5
B8
100
AcDbEntity
100
AcDbLine
  8
0
 62
256
370
-1
  6
BYLAYER
 10
82.4999999999999432
 20
7.200000000000145
 30
0.0
 11
37.4999999999999574
 21
7.2000000000001165
 31
0.0
  0
LINE
  5
B9
100
AcDbEntity
100
AcDbLine
  8
0
 62
256
370
-1
  6
BYLAYER
 10
22.4999999999999574
 20
7.2000000000001911
 30
0.0
 11
-3.0000000000000284
 21
7.2000000000009372
 31
0.0
  0
LINE
  5
BA
100
AcDbEntity
100
AcDbLine
  8
0
 62
256
370
-1
  6
BYLAYER
 10
149.9999999999999432
 20
9.2000000000000028
 30
0.0
 11
172.4999999999999432
 21
9.2000000000000028
 31
0.0
  0
LINE
  5
BB
100
AcDbEntity
100
AcDbLine
  8
0
 62
256
370
-1
  6
BYLAYER
 10
187.4999999999999432
 20
9.2000000000000028
 30
0.0
 11
232.4999999999999432
 21
9.2000000000000028
 31
0.0
  0
LINE
  5
BC
100
AcDbEntity
100
AcDbLine
  8
0
 62
256
370
-1
  6
BYLAYER
 10
247.4999999999999432
 20
9.2000000000000028
 30
0.0
 11
292.4999999999999432
 21
9.2000000000000028
 31
0.0
  0
LINE
  5
BD
100
AcDbEntity
100
AcDbLine
  8
0
 62
256
370
-1
  6
BYLAYER
 10
149.9999999999999716
 20
9.2000000000000028
 30
0.0
 11
127.4999999999999574
 21
9.2000000000000455
 31
0.0
  0
LINE
  5
BE
100
AcDbEntity
100
AcDbLine
  8
0
 62
256
370
-1
  6
BYLAYER
 10
112.4999999999999716
 20
9.2000000000000846
 30
0.0
 11
67.4999999999999574
 21
9.2000000000000419
 31
0.0
  0
LINE
  5
BF
100
AcDbEntity
100
AcDbLine
  8
0
 62
256
370
-1
  6
BYLAYER
 10
52.4999999999999716
 20
9.2000000000002551
 30
0.0
 11
7.4999999999999716
 21
9.2000000000003119
 31
0.0
  0
LINE
  5
C0
100
AcDbEntity
100
AcDbLine
  8
0
 62
256
370
-1
  6
BYLAYER
 10
157.4999999999999432
 20
11.2000000000000028
 30
0.0
 11
202.4999999999999432
 21
11.2000000000000028
 31
0.0
  0
LINE
  5
C1
100
AcDbEntity
100
AcDbLine
  8
0
 62
256
370
-1
  6
BYLAYER
 10
217.4999999999999432
 20
11.2000000000000028
 30
0.0
 11
262.4999999999999432
 21
11.2000000000000028
 31
0.0
  0
LINE
  5
C2
100
AcDbEntity
100
AcDbLine
  8
0
 62
256
370
-1
  6
BYLAYER
 10
277.4999999999999432
 20
11.2000000000000028
 30
0.0
 11
302.9999999999999432
 21
11.2000000000000028
 31
0.0
  0
LINE
  5
C3
100
AcDbEntity
100
AcDbLine
  8
0
 62
256
370
-1
  6
BYLAYER
 10
142.4999999999999432
 20
11.2000000000000171
 30
0.0
 11
97.4999999999999432
 21
11.2000000000001236
 31
0.0
  0
LINE
  5
C4
100
AcDbEntity
100
AcDbLine
  8
0
 62
256
370
-1
  6
BYLAYER
 10
82.4999999999999432
 20
11.200000000000145
 30
0.0
 11
37.4999999999999574
 21
11.2000000000001165
 31
0.0
  0
LINE
  5
C5
100
AcDbEntity
100
AcDbLine
  8
0
 62
256
370
-1
  6
BYLAYER
 10
22.4999999999999574
 20
11.2000000000001911
 30
0.0
 11
-3.0000000000000284
 21
11.2000000000009372
 31
0.0
  0
LINE
  5
C6
100
AcDbEntity
100
AcDbLine
  8
0
 62
256
370
-1
  6
BYLAYER
 10
149.9999999999999432
 20
13.2000000000000028
 30
0.0
 11
172.4999999999999432
 21
13.2000000000000028
 31
0.0
  0
LINE
  5
C7
100
AcDbEntity
100
AcDbLine
  8
0
 62
256
370
-1
  6
BYLAYER
 10
187.4999999999999432
 20
13.2000000000000028
 30
0.0
 11
232.4999999999999432
 21
13.2000000000000028
 31
0.0
  0
LINE
  5
C8
100
AcDbEntity
100
AcDbLine
  8
0
 62
256
370
-1
  6
BYLAYER
 10
247.4999999999999432
 20
13.2000000000000028
 30
0.0
 11
292.4999999999999432
 21
13.2000000000000028
 31
0.0
  0
LINE
  5
C9
100
AcDbEntity
100
AcDbLine
  8
0
 62
256
370
-1
  6
BYLAYER
 10
149.9999999999999716
 20
13.2000000000000028
 30
0.0
 11
127.4999999999999574
 21
13.2000000000000455
 31
0.0
  0
LINE
  5
CA
100
AcDbEntity
100
AcDbLine
  8
0
 62
256
370
-1
  6
BYLAYER
 10
112.4999999999999716
 20
13.2000000000000846
 30
0.0
 11
67.4999999999999574
 21
13.2000000000000419
 31
0.0
  0
LINE
  5
CB
100
AcDbEntity
100
AcDbLine
  8
0
 62
256
370
-1
  6
BYLAYER
 10
52.4999999999999716
 20
13.2000000000002551
 30
0.0
 11
7.4999999999999716
 21
13.2000000000003119
 31
0.0
  0
LINE
  5
CC
100
AcDbEntity
100
AcDbLine
  8
0
 62
256
370
-1
  6
BYLAYER
 10
157.4999999999999432
 20
15.2000000000000028
 30
0.0
 11
202.4999999999999432
 21
15.2000000000000028
 31
0.0
  0
LINE
  5
CD
100
AcDbEntity
100
AcDbLine
  8
0
 62
256
370
-1
  6
BYLAYER
 10
217.4999999999999432
 20
15.2000000000000028
 30
0.0
 11
262.4999999999999432
 21
15.2000000000000028
 31
0.0
  0
LINE
  5
CE
100
AcDbEntity
100
AcDbLine
  8
0
 62
256
370
-1
  6
BYLAYER
 10
277.4999999999999432
 20
15.2000000000000028
 30
0.0
 11
302.9999999999999432
 21
15.2000000000000028
 31
0.0
  0
LINE
  5
CF
100
AcDbEntity
100
AcDbLine
  8
0
 62
256
370
-1
  6
BYLAYER
 10
142.4999999999999432
 20
15.2000000000000171
 30
0.0
 11
97.4999999999999432
 21
15.2000000000001236
 31
0.0
  0
LINE
  5
D0
100
AcDbEntity
100
AcDbLine
  8
0
 62
256
370
-1
  6
BYLAYER
 10
82.4999999999999432
 20
15.200000000000145
 30
0.0
 11
37.4999999999999574
 21
15.2000000000001165
 31
0.0
  0
LINE
  5
D1
100
AcDbEntity
100
AcDbLine
  8
0
 62
256
370
-1
  6
BYLAYER
 10
22.4999999999999574
 20
15.2000000000001911
 30
0.0
 11
-3.0000000000000284
 21
15.2000000000009372
 31
0.0
  0
LINE
  5
D2
100
AcDbEntity
100
AcDbLine
  8
0
 62
256
370
-1
  6
BYLAYER
 10
149.9999999999999432
 20
17.2000000000000028
 30
0.0
 11
172.4999999999999432
 21
17.2000000000000028
 31
0.0
  0
LINE
  5
D3
100
AcDbEntity
100
AcDbLine
  8
0
 62
256
370
-1
  6
BYLAYER
 10
187.4999999999999432
 20
17.2000000000000028
 30
0.0
 11
232.4999999999999432
 21
17.2000000000000028
 31
0.0
  0
LINE
  5
D4
100
AcDbEntity
100
AcDbLine
  8
0
 62
256
370
-1
  6
BYLAYER
 10
247.4999999999999432
 20
17.2000000000000028
 30
0.0
 11
292.4999999999999432
 21
17.2000000000000028
 31
0.0
  0
LINE
  5
D5
100
AcDbEntity
100
AcDbLine
  8
0
 62
256
370
-1
  6
BYLAYER
 10
149.9999999999999716
 20
17.2000000000000028
 30
0.0
 11
127.4999999999999574
 21
17.2000000000000455
 31
0.0
  0
LINE
  5
D6
100
AcDbEntity
100
AcDbLine
  8
0
 62
256
370
-1
  6
BYLAYER
 10
112.4999999999999716
 20
17.2000000000000846
 30
0.0
 11
67.4999999999999574
 21
17.2000000000000419
 31
0.0
  0
LINE
  5
D7
100
AcDbEntity
100
AcDbLine
  8
0
 62
256
370
-1
  6
BYLAYER
 10
52.4999999999999716
 20
17.2000000000002551
 30
0.0
 11
7.4999999999999716
 21
17.2000000000003119
 31
0.0
  0
LINE
  5
D8
100
AcDbEntity
100
AcDbLine
  8
0
 62
256
370
-1
  6
BYLAYER
 10
157.4999999999999432
 20
19.2000000000000028
 30
0.0
 11
202.4999999999999432
 21
19.2000000000000028
 31
0.0
  0
LINE
  5
D9
100
AcDbEntity
100
AcDbLine
  8
0
 62
256
370
-1
  6
BYLAYER
 10
217.4999999999999432
 20
19.2000000000000028
 30
0.0
 11
262.4999999999999432
 21
19.2000000000000028
 31
0.0
  0
LINE
  5
DA
100
AcDbEntity
100
AcDbLine
  8
0
 62
256
370
-1
  6
BYLAYER
 10
277.4999999999999432
 20
19.2000000000000028
 30
0.0
 11
302.9999999999999432
 21
19.2000000000000028
 31
0.0
  0
LINE
  5
DB
100
AcDbEntity
100
AcDbLine
  8
0
 62
256
370
-1
  6
BYLAYER
 10
142.4999999999999432
 20
19.2000000000000171
 30
0.0
 11
97.4999999999999432
 21
19.2000000000001236
 31
0.0
  0
LINE
  5
DC
100
AcDbEntity
100
AcDbLine
  8
0
 62
256
370
-1
  6
BYLAYER
 10
82.4999999999999432
 20
19.200000000000145
 30
0.0
 11
37.4999999999999574
 21
19.2000000000001165
 31
0.0
  0
LINE
  5
DD
100
AcDbEntity
100
AcDbLine
  8
0
 62
256
370
-1
  6
BYLAYER
 10
22.4999999999999574
 20
19.2000000000001911
 30
0.0
 11
-3.0000000000000284
 21
19.2000000000009372
 31
0.0
  0
LINE
  5
DE
100
AcDbEntity
100
AcDbLine
  8
0
 62
256
370
-1
  6
BYLAYER
 10
149.9999999999999432
 20
21.2000000000000028
 30
0.0
 11
172.4999999999999432
 21
21.2000000000000028
 31
0.0
  0
LINE
  5
DF
100
AcDbEntity
100
AcDbLine
  8
0
 62
256
370
-1
  6
BYLAYER
 10
187.4999999999999432
 20
21.2000000000000028
 30
0.0
 11
232.4999999999999432
 21
21.2000000000000028
 31
0.0
  0
LINE
  5
E0
100
AcDbEntity
100
AcDbLine
  8
0
 62
256
370
-1
  6
BYLAYER
 10
247.4999999999999432
 20
21.2000000000000028
 30
0.0
 11
292.4999999999999432
 21
21.2000000000000028
 31
0.0
  0
LINE
  5
E1
100
AcDbEntity
100
AcDbLine
  8
0
 62
256
370
-1
  6
BYLAYER
 10
149.9999999999999716
 20
21.2000000000000028
 30
0.0
 11
127.4999999999999574
 21
21.2000000000000455
 31
0.0
  0
LINE
  5
E2
100
AcDbEntity
100
AcDbLine
  8
0
 62
256
370
-1
  6
BYLAYER
 10
112.4999999999999716
 20
21.2000000000000846
 30
0.0
 11
67.4999999999999574
 21
21.2000000000000419
 31
0.0
  0
LINE
  5
E3
100
AcDbEntity
100
AcDbLine
  8
0
 62
256
370
-1
  6
BYLAYER
 10
52.4999999999999716
 20
21.2000000000002551
 30
0.0
 11
7.4999999999999716
 21
21.2000000000003119
 31
0.0
  0
LINE
  5
E4
100
AcDbEntity
100
AcDbLine
  8
0
 62
256
370
-1
  6
BYLAYER
 10
157.4999999999999432
 20
23.2000000000000028
 30
0.0
 11
202.4999999999999432
 21
23.2000000000000028
 31
0.0
  0
LINE
  5
E5
100
AcDbEntity
100
AcDbLine
  8
0
 62
256
370
-1
  6
BYLAYER
 10
217.4999999999999432
 20
23.2000000000000028
 30
0.0
 11
262.4999999999999432
 21
23.2000000000000028
 31
0.0
  0
LINE
  5
E6
100
AcDbEntity
100
AcDbLine
  8
0
 62
256
370
-1
  6
BYLAYER
 10
277.4999999999999432
 20
23.2000000000000028
 30
0.0
 11
302.9999999999999432
 21
23.2000000000000028
 31
0.0
  0
LINE
  5
E7
100
AcDbEntity
100
AcDbLine
  8
0
 62
256
370
-1
  6
BYLAYER
 10
142.4999999999999432
 20
23.2000000000000171
 30
0.0
 11
97.4999999999999432
 21
23.2000000000001236
 31
0.0
  0
LINE
  5
E8
100
AcDbEntity
100
AcDbLine
  8
0
 62
256
370
-1
  6
BYLAYER
 10
82.4999999999999432
 20
23.200000000000145
 30
0.0
 11
37.4999999999999574
 21
23.2000000000001165
 31
0.0
  0
LINE
  5
E9
100
AcDbEntity
100
AcDbLine
  8
0
 62
256
370
-1
  6
BYLAYER
 10
22.4999999999999574
 20
23.2000000000001911
 30
0.0
 11
-3.0000000000000284
 21
23.2000000000009372
 31
0.0
  0
LINE
  5
EA
100
AcDbEntity
100
AcDbLine
  8
0
 62
256
370
-1
  6
BYLAYER
 10
149.9999999999999432
 20
25.2000000000000028
 30
0.0
 11
172.4999999999999432
 21
25.2000000000000028
 31
0.0
  0
LINE
  5
EB
100
AcDbEntity
100
AcDbLine
  8
0
 62
256
370
-1
  6
BYLAYER
 10
187.4999999999999432
 20
25.2000000000000028
 30
0.0
 11
232.4999999999999432
 21
25.2000000000000028
 31
0.0
  0
LINE
  5
EC
100
AcDbEntity
100
AcDbLine
  8
0
 62
256
370
-1
  6
BYLAYER
 10
247.4999999999999432
 20
25.2000000000000028
 30
0.0
 11
292.4999999999999432
 21
25.2000000000000028
 31
0.0
  0
LINE
  5
ED
100
AcDbEntity
100
AcDbLine
  8
0
 62
256
370
-1
  6
BYLAYER
 10
149.9999999999999716
 20
25.2000000000000028
 30
0.0
 11
127.4999999999999574
 21
25.2000000000000455
 31
0.0
  0
LINE
  5
EE
100
AcDbEntity
100
AcDbLine
  8
0
 62
256
370
-1
  6
BYLAYER
 10
112.4999999999999716
 20
25.2000000000000846
 30
0.0
 11
67.4999999999999574
 21
25.2000000000000419
 31
0.0
  0
LINE
  5
EF
100
AcDbEntity
100
AcDbLine
  8
0
 62
256
370
-1
  6
BYLAYER
 10
52.4999999999999716
 20
25.2000000000002551
 30
0.0
 11
7.4999999999999716
 21
25.2000000000003119
 31
0.0
  0
LINE
  5
F0
100
AcDbEntity
100
AcDbLine
  8
0
 62
256
370
-1
  6
BYLAYER
 10
157.4999999999999432
 20
27.2000000000000028
 30
0.0
 11
202.4999999999999432
 21
27.2000000000000028
 31
0.0
  0
LINE
  5
F1
100
AcDbEntity
100
AcDbLine
  8
0
 62
256
370
-1
  6
BYLAYER
 10
217.4999999999999432
 20
27.2000000000000028
 30
0.0
 11
262.4999999999999432
 21
27.2000000000000028
 31
0.0
  0
LINE
  5
F2
100
AcDbEntity
100
AcDbLine
  8
0
 62
256
370
-1
  6
BYLAYER
 10
277.4999999999999432
 20
27.2000000000000028
 30
0.0
 11
302.9999999999999432
 21
27.2000000000000028
 31
0.0
  0
LINE
  5
F3
100
AcDbEntity
100
AcDbLine
  8
0
 62
256
370
-1
  6
BYLAYER
 10
142.4999999999999432
 20
27.2000000000000171
 30
0.0
 11
97.4999999999999432
 21
27.2000000000001236
 31
0.0
  0
LINE
  5
F4
100
AcDbEntity
100
AcDbLine
  8
0
 62
256
370
-1
  6
BYLAYER
 10
82.4999999999999432
 20
27.200000000000145
 30
0.0
 11
37.4999999999999574
 21
27.2000000000001165
 31
0.0
  0
LINE
  5
F5
100
AcDbEntity
100
AcDbLine
  8
0
 62
256
370
-1
  6
BYLAYER
 10
22.4999999999999574
 20
27.2000000000001911
 30
0.0
 11
-3.0000000000000284
 21
27.2000000000009372
 31
0.0
  0
LINE
  5
F6
100
AcDbEntity
100
AcDbLine
  8
0
 62
256
370
-1
  6
BYLAYER
 10
149.9999999999999432
 20
29.2000000000000028
 30
0.0
 11
172.4999999999999432
 21
29.2000000000000028
 31
0.0
  0
LINE
  5
F7
100
AcDbEntity
100
AcDbLine
  8
0
 62
256
370
-1
  6
BYLAYER
 10
187.4999999999999432
 20
29.2000000000000028
 30
0.0
 11
232.4999999999999432
 21
29.2000000000000028
 31
0.0
  0
LINE
  5
F8
100
AcDbEntity
100
AcDbLine
  8
0
 62
256
370
-1
  6
BYLAYER
 10
247.4999999999999432
 20
29.2000000000000028
 30
0.0
 11
292.4999999999999432
 21
29.2000000000000028
 31
0.0
  0
LINE
  5
F9
100
AcDbEntity
100
AcDbLine
  8
0
 62
256
370
-1
  6
BYLAYER
 10
149.9999999999999716
 20
29.2000000000000028
 30
0.0
 11
127.4999999999999574
 21
29.2000000000000455
 31
0.0
  0
LINE
  5
FA
100
AcDbEntity
100
AcDbLine
  8
0
 62
256
370
-1
  6
BYLAYER
 10
112.4999999999999716
 20
29.2000000000000846
 30
0.0
 11
67.4999999999999574
 21
29.2000000000000419
 31
0.0
  0
LINE
  5
FB
100
AcDbEntity
100
AcDbLine
  8
0
 62
256
370
-1
  6
BYLAYER
 10
52.4999999999999716
 20
29.2000000000002551
 30
0.0
 11
7.4999999999999716
 21
29.2000000000003119
 31
0.0
  0
LINE
  5
FC
100
AcDbEntity
100
AcDbLine
  8
0
 62
256
370
-1
  6
BYLAYER
 10
157.4999999999999432
 20
31.2000000000000028
 30
0.0
 11
202.4999999999999432
 21
31.2000000000000028
 31
0.0
  0
LINE
  5
FD
100
AcDbEntity
100
AcDbLine
  8
0
 62
256
370
-1
  6
BYLAYER
 10
217.4999999999999432
 20
31.2000000000000028
 30
0.0
 11
262.4999999999999432
 21
31.2000000000000028
 31
0.0
  0
LINE
  5
FE
100
AcDbEntity
100
AcDbLine
  8
0
 62
256
370
-1
  6
BYLAYER
 10
277.4999999999999432
 20
31.2000000000000028
 30
0.0
 11
302.9999999999999432
 21
31.2000000000000028
 31
0.0
  0
LINE
  5
FF
100
AcDbEntity
100
AcDbLine
  8
0
 62
256
370
-1
  6
BYLAYER
 10
142.4999999999999432
 20
31.2000000000000171
 30
0.0
 11
97.4999999999999432
 21
31.2000000000001236
 31
0.0
  0
LINE
  5
100
100
AcDbEntity
100
AcDbLine
  8
0
 62
256
370
-1
  6
BYLAYER
 10
82.4999999999999432
 20
31.200000000000145
 30
0.0
 11
37.4999999999999574
 21
31.2000000000001165
 31
0.0
  0
LINE
  5
101
100
AcDbEntity
100
AcDbLine
  8
0
 62
256
370
-1
  6
BYLAYER
 10
22.4999999999999574
 20
31.2000000000001911
 30
0.0
 11
-3.0000000000000284
 21
31.2000000000009372
 31
0.0
  0
LINE
  5
102
100
AcDbEntity
100
AcDbLine
  8
0
 62
256
370
-1
  6
BYLAYER
 10
149.9999999999999432
 20
33.2000000000000028
 30
0.0
 11
172.4999999999999432
 21
33.2000000000000028
 31
0.0
  0
LINE
  5
103
100
AcDbEntity
100
AcDbLine
  8
0
 62
256
370
-1
  6
BYLAYER
 10
187.4999999999999432
 20
33.2000000000000028
 30
0.0
 11
232.4999999999999432
 21
33.2000000000000028
 31
0.0
  0
LINE
  5
104
100
AcDbEntity
100
AcDbLine
  8
0
 62
256
370
-1
  6
BYLAYER
 10
247.4999999999999432
 20
33.2000000000000028
 30
0.0
 11
292.4999999999999432
 21
33.2000000000000028
 31
0.0
  0
LINE
  5
105
100
AcDbEntity
100
AcDbLine
  8
0
 62
256
370
-1
  6
BYLAYER
 10
149.9999999999999716
 20
33.2000000000000028
 30
0.0
 11
127.4999999999999574
 21
33.2000000000000455
 31
0.0
  0
LINE
  5
106
100
AcDbEntity
100
AcDbLine
  8
0
 62
256
370
-1
  6
BYLAYER
 10
112.4999999999999716
 20
33.2000000000000881
 30
0.0
 11
67.4999999999999574
 21
33.2000000000000455
 31
0.0
  0
LINE
  5
107
100
AcDbEntity
100
AcDbLine
  8
0
 62
256
370
-1
  6
BYLAYER
 10
52.4999999999999716
 20
33.2000000000002586
 30
0.0
 11
7.4999999999999716
 21
33.2000000000003155
 31
0.0
  0
LINE
  5
108
100
AcDbEntity
100
AcDbLine
  8
0
 62
256
370
-1
  6
BYLAYER
 10
157.4999999999999432
 20
35.2000000000000028
 30
0.0
 11
202.4999999999999432
 21
35.2000000000000028
 31
0.0
  0
LINE
  5
109
100
AcDbEntity
100
AcDbLine
  8
0
 62
256
370
-1
  6
BYLAYER
 10
217.4999999999999432
 20
35.2000000000000028
 30
0.0
 11
262.4999999999999432
 21
35.2000000000000028
 31
0.0
  0
LINE
  5
10A
100
AcDbEntity
100
AcDbLine
  8
0
 62
256
370
-1
  6
BYLAYER
 10
277.4999999999999432
 20
35.2000000000000028
 30
0.0
 11
302.9999999999999432
 21
35.2000000000000028
 31
0.0
  0
LINE
  5
10B
100
AcDbEntity
100
AcDbLine
  8
0
 62
256
370
-1
  6
BYLAYER
 10
142.4999999999999432
 20
35.2000000000000171
 30
0.0
 11
97.4999999999999432
 21
35.2000000000001236
 31
0.0
  0
LINE
  5
10C
100
AcDbEntity
100
AcDbLine
  8
0
 62
256
370
-1
  6
BYLAYER
 10
82.4999999999999432
 20
35.200000000000145
 30
0.0
 11
37.4999999999999574
 21
35.2000000000001165
 31
0.0
  0
LINE
  5
10D
100
AcDbEntity
100
AcDbLine
  8
0
 62
256
370
-1
  6
BYLAYER
 10
22.4999999999999574
 20
35.2000000000001876
 30
0.0
 11
-3.0000000000000284
 21
35.2000000000009408
 31
0.0
  0
LINE
  5
10E
100
AcDbEntity
100
AcDbLine
  8
0
 62
256
370
-1
  6
BYLAYER
 10
149.9999999999999432
 20
37.2000000000000028
 30
0.0
 11
172.4999999999999432
 21
37.2000000000000028
 31
0.0
  0
LINE
  5
10F
100
AcDbEntity
100
AcDbLine
  8
0
 62
256
370
-1
  6
BYLAYER
 10
187.4999999999999432
 20
37.2000000000000028
 30
0.0
 11
232.4999999999999432
 21
37.2000000000000028
 31
0.0
  0
LINE
  5
110
100
AcDbEntity
100
AcDbLine
  8
0
 62
256
370
-1
  6
BYLAYER
 10
247.4999999999999432
 20
37.2000000000000028
 30
0.0
 11
292.4999999999999432
 21
37.2000000000000028
 31
0.0
  0
LINE
  5
111
100
AcDbEntity
100
AcDbLine
  8
0
 62
256
370
-1
  6
BYLAYER
 10
149.9999999999999716
 20
37.2000000000000028
 30
0.0
 11
127.4999999999999574
 21
37.2000000000000455
 31
0.0
  0
LINE
  5
112
100
AcDbEntity
100
AcDbLine
  8
0
 62
256
370
-1
  6
BYLAYER
 10
112.4999999999999716
 20
37.2000000000000881
 30
0.0
 11
67.4999999999999574
 21
37.2000000000000455
 31
0.0
  0
LINE
  5
113
100
AcDbEntity
100
AcDbLine
  8
0
 62
256
370
-1
  6
BYLAYER
 10
52.4999999999999716
 20
37.2000000000002586
 30
0.0
 11
7.4999999999999716
 21
37.2000000000003155
 31
0.0
  0
LINE
  5
114
100
AcDbEntity
100
AcDbLine
  8
0
 62
256
370
-1
  6
BYLAYER
 10
157.4999999999999432
 20
39.2000000000000028
 30
0.0
 11
202.4999999999999432
 21
39.2000000000000028
 31
0.0
  0
LINE
  5
115
100
AcDbEntity
100
AcDbLine
  8
0
 62
256
370
-1
  6
BYLAYER
 10
217.4999999999999432
 20
39.2000000000000028
 30
0.0
 11
262.4999999999999432
 21
39.2000000000000028
 31
0.0
  0
LINE
  5
116
100
AcDbEntity
100
AcDbLine
  8
0
 62
256
370
-1
  6
BYLAYER
 10
277.4999999999999432
 20
39.2000000000000028
 30
0.0
 11
302.9999999999999432
 21
39.2000000000000028
 31
0.0
  0
LINE
  5
117
100
AcDbEntity
100
AcDbLine
  8
0
 62
256
370
-1
  6
BYLAYER
 10
142.4999999999999432
 20
39.2000000000000171
 30
0.0
 11
97.4999999999999432
 21
39.2000000000001236
 31
0.0
  0
LINE
  5
118
100
AcDbEntity
100
AcDbLine
  8
0
 62
256
370
-1
  6
BYLAYER
 10
82.4999999999999432
 20
39.200000000000145
 30
0.0
 11
37.4999999999999574
 21
39.2000000000001165
 31
0.0
  0
LINE
  5
119
100
AcDbEntity
100
AcDbLine
  8
0
 62
256
370
-1
  6
BYLAYER
 10
22.4999999999999574
 20
39.2000000000001876
 30
0.0
 11
-3.0000000000000284
 21
39.2000000000009408
 31
0.0
  0
LINE
  5
11A
100
AcDbEntity
100
AcDbLine
  8
0
 62
256
370
-1
  6
BYLAYER
 10
30.3500000000000014
 20
93.6500000000000057
 30
0.0
 11
109.6500000000000057
 21
93.6500000000000057
 31
0.0
  0
LINE
  5
11B
100
AcDbEntity
100
AcDbLine
  8
0
 62
256
370
-1
  6
BYLAYER
 10
109.6500000000000057
 20
93.6500000000000057
 30
0.0
 11
109.6500000000000057
 21
66.3500000000000085
 31
0.0
  0
LINE
  5
11C
100
AcDbEntity
100
AcDbLine
  8
0
 62
256
370
-1
  6
BYLAYER
 10
109.6500000000000057
 20
66.3500000000000085
 30
0.0
 11
30.3500000000000014
 21
66.3500000000000085
 31
0.0
  0
LINE
  5
11D
100
AcDbEntity
100
AcDbLine
  8
0
 62
256
370
-1
  6
BYLAYER
 10
30.3500000000000014
 20
66.3500000000000085
 30
0.0
 11
30.3500000000000014
 21
93.6500000000000057
 31
0.0
  0
CIRCLE
  5
11E
100
AcDbEntity
100
AcDbCircle
  8
0
 62
256
370
-1
  6
BYLAYER
 10
107.5999999999999943
 20
95.5
 30
0.0
 40
1.5
  0
CIRCLE
  5
11F
100
AcDbEntity
100
AcDbCircle
  8
0
 62
256
370
-1
  6
BYLAYER
 10
32.3999999999999986
 20
95.5
 30
0.0
 40
1.5
  0
CIRCLE
  5
120
100
AcDbEntity
100
AcDbCircle
  8
0
 62
256
370
-1
  6
BYLAYER
 10
32.3999999999999986
 20
64.5
 30
0.0
 40
1.5
  0
CIRCLE
  5
121
100
AcDbEntity
100
AcDbCircle
  8
0
 62
256
370
-1
  6
BYLAYER
 10
107.5999999999999943
 20
64.5
 30
0.0
 40
1.5
  0
CIRCLE
  5
122
100
AcDbEntity
100
AcDbCircle
  8
0
 62
256
370
-1
  6
BYLAYER
 10
140.0
 20
80.0
 30
0.0
 40
8.0
  0
CIRCLE
  5
123
100
AcDbEntity
100
AcDbCircle
  8
0
 62
256
370
-1
  6
BYLAYER
 10
170.0
 20
80.0
 30
0.0
 40
8.0
  0
CIRCLE
  5
124
100
AcDbEntity
100
AcDbCircle
  8
0
 62
256
370
-1
  6
BYLAYER
 10
200.0
 20
80.0
 30
0.0
 40
8.0
  0
TEXT
  5
125
100
AcDbEntity
100
AcDbText
  8
0
 62
256
370
-1
  6
BYLAYER
 10
0.0
 20
0.0
 30
0.0
 40
4.0
  1
Min.
 50
0.0
 41
1.0
  7
textstyle1
 71
0
 72
1
 11
140.0
 21
100.0
 31
0.0
100
AcDbText
 73
3
  0
TEXT
  5
126
100
AcDbEntity
100
AcDbText
  8
0
 62
256
370
-1
  6
BYLAYER
 10
0.0
 20
0.0
 30
0.0
 40
4.0
  1
Sec.
 50
0.0
 41
1.0
  7
textstyle2
 71
0
 72
1
 11
170.0
 21
100.0
 31
0.0
100
AcDbText
 73
3
  0
TEXT
  5
127
100
AcDbEntity
100
AcDbText
  8
0
 62
256
370
-1
  6
BYLAYER
 10
0.0
 20
0.0
 30
0.0
 40
4.0
  1
Start/Stop
 50
0.0
 41
1.0
  7
textstyle0
 71
0
 72
1
 11
200.0
 21
100.0
 31
0.0
100
AcDbText
 73
3
  0
ENDSEC
  0
SECTION
  2
OBJECTS
  0
DICTIONARY
  5
C
100
AcDbDictionary
280
0
281
1
  3
ACAD_GROUP
350
D
  3
ACAD_LAYOUT
350
1A
  3
ACAD_MLINESTYLE
350
17
  3
ACAD_PLOTSETTINGS
350
19
  3
ACAD_PLOTSTYLENAME
350
E
  3
AcDbVariableDictionary
350
128
  3
QCAD_OBJECTS
350
129
  0
DICTIONARY
  5
D
100
AcDbDictionary
280
0
281
1
  0
ACDBDICTIONARYWDFLT
  5
E
100
AcDbDictionary
281
1
  3
Normal
350
F
100
AcDbDictionaryWithDefault
340
F
  0
ACDBPLACEHOLDER
  5
F
  0
DICTIONARY
  5
17
100
AcDbDictionary
280
0
281
1
  3
Standard
350
18
  0
MLINESTYLE
  5
18
100
AcDbMlineStyle
  2
STANDARD
 70
0
  3

 62
256
 51
90.0
 52
90.0
 71
2
 49
0.5
 62
256
  6
BYLAYER
 49
-0.5
 62
256
  6
BYLAYER
  0
DICTIONARY
  5
19
100
AcDbDictionary
280
0
281
1
  0
DICTIONARY
  5
1A
100
AcDbDictionary
281
1
  3
Layout1
350
1E
  3
Layout2
350
26
  3
Model
350
22
  0
LAYOUT
  5
1E
100
AcDbPlotSettings
  1

  2
none_device
  4

  6

 40
0.0
 41
0.0
 42
0.0
 43
0.0
 44
0.0
 45
0.0
 46
0.0
 47
0.0
 48
0.0
 49
0.0
140
0.0
141
0.0
142
1.0
143
1.0
 70
688
 72
0
 73
0
 74
5
  7

 75
16
147
1.0
148
0.0
149
0.0
100
AcDbLayout
  1
Layout1
 70
1
 71
1
 10
0.0
 20
0.0
 11
420.0
 21
297.0
 12
0.0
 22
0.0
 32
0.0
 14
100000000000000000000.0
 24
100000000000000000000.0
 34
100000000000000000000.0
 15
-100000000000000000000.0
 25
-100000000000000000000.0
 35
-100000000000000000000.0
146
0.0
 13
0.0
 23
0.0
 33
0.0
 16
1.0
 26
0.0
 36
0.0
 17
0.0
 27
1.0
 37
0.0
 76
0
330
1B
  0
LAYOUT
  5
22
100
AcDbPlotSettings
  1

  2
none_device
  4

  6

 40
0.0
 41
0.0
 42
0.0
 43
0.0
 44
0.0
 45
0.0
 46
0.0
 47
0.0
 48
0.0
 49
0.0
140
0.0
141
0.0
142
1.0
143
1.0
 70
1712
 72
0
 73
0
 74
0
  7

 75
0
147
1.0
148
0.0
149
0.0
100
AcDbLayout
  1
Model
 70
1
 71
0
 10
0.0
 20
0.0
 11
12.0
 21
9.0
 12
0.0
 22
0.0
 32
0.0
 14
0.0
 24
0.0
 34
0.0
 15
0.0
 25
0.0
 35
0.0
146
0.0
 13
0.0
 23
0.0
 33
0.0
 16
1.0
 26
0.0
 36
0.0
 17
0.0
 27
1.0
 37
0.0
 76
0
330
1F
  0
LAYOUT
  5
26
100
AcDbPlotSettings
  1

  2
none_device
  4

  6

 40
0.0
 41
0.0
 42
0.0
 43
0.0
 44
0.0
 45
0.0
 46
0.0
 47
0.0
 48
0.0
 49
0.0
140
0.0
141
0.0
142
1.0
143
1.0
 70
688
 72
0
 73
0
 74
5
  7

 75
16
147
1.0
148
0.0
149
0.0
100
AcDbLayout
  1
Layout2
 70
1
 71
2
 10
0.0
 20
0.0
 11
12.0
 21
9.0
 12
0.0
 22
0.0
 32
0.0
 14
0.0
 24
0.0
 34
0.0
 15
0.0
 25
0.0
 35
0.0
146
0.0
 13
0.0
 23
0.0
 33
0.0
 16
1.0
 26
0.0
 36
0.0
 17
0.0
 27
1.0
 37
0.0
 76
0
330
23
  0
DICTIONARY
  5
128
100
AcDbDictionary
281
1
  3
DIMASSOC
350
12B
  3
HIDETEXT
350
12A
  0
DICTIONARYVAR
  5
12A
100
DictionaryVariables
280
0
  1
2
  0
DICTIONARYVAR
  5
12B
100
DictionaryVariables
280
0
  1
1
  0
DICTIONARY
  5
129
100
AcDbDictionary
281
1
  3
Grid/DisplayGrid00
350
12C
  3
Grid/DisplayGrid01
350
12D
  3
Grid/DisplayGrid02
350
12E
  3
Grid/DisplayGrid03
350
12F
  3
Grid/GridSpacingX00
350
130
  3
Grid/GridSpacingX01
350
131
  3
Grid/GridSpacingX02
350
132
  3
Grid/GridSpacingX03
350
133
  3
Grid/GridSpacingY00
350
134
  3
Grid/GridSpacingY01
350
135
  3
Grid/GridSpacingY02
350
136
  3
Grid/GridSpacingY03
350
137
  3
Grid/IsometricGrid00
350
138
  3
Grid/IsometricGrid01
350
139
  3
Grid/IsometricGrid02
350
13A
  3
Grid/IsometricGrid03
350
13B
  3
Grid/IsometricProjection00
350
13C
  3
Grid/IsometricProjection01
350
13D
  3
Grid/IsometricProjection02
350
13E
  3
Grid/IsometricProjection03
350
13F
  3
Grid/MetaGridSpacingX00
350
140
  3
Grid/MetaGridSpacingX01
350
141
  3
Grid/MetaGridSpacingX02
350
142
  3
Grid/MetaGridSpacingX03
350
143
  3
Grid/MetaGridSpacingY00
350
144
  3
Grid/MetaGridSpacingY01
350
145
  3
Grid/MetaGridSpacingY02
350
146
  3
Grid/MetaGridSpacingY03
350
147
  3
MultiPageSettings/Columns
350
148
  3
MultiPageSettings/GlueMarginsBottom
350
149
  3
MultiPageSettings/GlueMarginsLeft
350
14A
  3
MultiPageSettings/GlueMarginsRight
350
14B
  3
MultiPageSettings/GlueMarginsTop
350
14C
  3
MultiPageSettings/PrintCropMarks
350
14D
  3
MultiPageSettings/Rows
350
14E
  3
PageSettings/OffsetX
350
14F
  3
PageSettings/OffsetY
350
150
  3
PageSettings/PageOrientation
350
151
  3
PageSettings/PaperHeight
350
152
  3
PageSettings/PaperWidth
350
153
  3
PageSettings/Scale
350
154
  3
PageSettings/ShowPaperBorders
350
155
  3
UnitSettings/PaperUnit
350
156
  0
XRECORD
  5
12C
330
129
100
AcDbXrecord
280
1
290
1
  0
XRECORD
  5
12D
330
129
100
AcDbXrecord
280
1
290
1
  0
XRECORD
  5
12E
330
129
100
AcDbXrecord
280
1
290
1
  0
XRECORD
  5
12F
330
129
100
AcDbXrecord
280
1
290
1
  0
XRECORD
  5
130
330
129
100
AcDbXrecord
280
1
1000
auto
  0
XRECORD
  5
131
330
129
100
AcDbXrecord
280
1
1000
auto
  0
XRECORD
  5
132
330
129
100
AcDbXrecord
280
1
1000
auto
  0
XRECORD
  5
133
330
129
100
AcDbXrecord
280
1
1000
auto
  0
XRECORD
  5
134
330
129
100
AcDbXrecord
280
1
1000
auto
  0
XRECORD
  5
135
330
129
100
AcDbXrecord
280
1
1000
auto
  0
XRECORD
  5
136
330
129
100
AcDbXrecord
280
1
1000
auto
  0
XRECORD
  5
137
330
129
100
AcDbXrecord
280
1
1000
auto
  0
XRECORD
  5
138
330
129
100
AcDbXrecord
280
1
290
0
  0
XRECORD
  5
139
330
129
100
AcDbXrecord
280
1
290
0
  0
XRECORD
  5
13A
330
129
100
AcDbXrecord
280
1
290
0
  0
XRECORD
  5
13B
330
129
100
AcDbXrecord
280
1
290
0
  0
XRECORD
  5
13C
330
129
100
AcDbXrecord
280
1
 90
0
  0
XRECORD
  5
13D
330
129
100
AcDbXrecord
280
1
 90
0
  0
XRECORD
  5
13E
330
129
100
AcDbXrecord
280
1
 90
0
  0
XRECORD
  5
13F
330
129
100
AcDbXrecord
280
1
 90
0
  0
XRECORD
  5
140
330
129
100
AcDbXrecord
280
1
1000
auto
  0
XRECORD
  5
141
330
129
100
AcDbXrecord
280
1
1000
auto
  0
XRECORD
  5
142
330
129
100
AcDbXrecord
280
1
1000
auto
  0
XRECORD
  5
143
330
129
100
AcDbXrecord
280
1
1000
auto
  0
XRECORD
  5
144
330
129
100
AcDbXrecord
280
1
1000
auto
  0
XRECORD
  5
145
330
129
100
AcDbXrecord
280
1
1000
auto
  0
XRECORD
  5
146
330
129
100
AcDbXrecord
280
1
1000
auto
  0
XRECORD
  5
147
330
129
100
AcDbXrecord
280
1
1000
auto
  0
XRECORD
  5
148
330
129
100
AcDbXrecord
280
1
 90
1
  0
XRECORD
  5
149
330
129
100
AcDbXrecord
280
1
 40
10.0
  0
XRECORD
  5
14A
330
129
100
AcDbXrecord
280
1
 40
10.0
  0
XRECORD
  5
14B
330
129
100
AcDbXrecord
280
1
 40
10.0
  0
XRECORD
  5
14C
330
129
100
AcDbXrecord
280
1
 40
10.0
  0
XRECORD
  5
14D
330
129
100
AcDbXrecord
280
1
290
0
  0
XRECORD
  5
14E
330
129
100
AcDbXrecord
280
1
 90
1
  0
XRECORD
  5
14F
330
129
100
AcDbXrecord
280
1
 40
0.0
  0
XRECORD
  5
150
330
129
100
AcDbXrecord
280
1
 40
0.0
  0
XRECORD
  5
151
330
129
100
AcDbXrecord
280
1
1000
Portrait
  0
XRECORD
  5
152
330
129
100
AcDbXrecord
280
1
 40
297.0
  0
XRECORD
  5
153
330
129
100
AcDbXrecord
280
1
 40
210.0
  0
XRECORD
  5
154
330
129
100
AcDbXrecord
280
1
1000
1:1
  0
XRECORD
  5
155
330
129
100
AcDbXrecord
280
1
290
1
  0
XRECORD
  5
156
330
129
100
AcDbXrecord
280
1
 90
4
  0
ENDSEC
  0
EOF
